<?xml version="1.0" standalone="no"?><!DOCTYPE svg PUBLIC "-//W3C//DTD SVG 1.1//EN" "http://www.w3.org/Graphics/SVG/1.1/DTD/svg11.dtd"><svg t="1565767103553" class="icon" viewBox="0 0 1381 1024" version="1.1" xmlns="http://www.w3.org/2000/svg" p-id="6669" xmlns:xlink="http://www.w3.org/1999/xlink" width="269.7265625" height="200"><defs><style type="text/css"></style></defs><path d="M1215.589 1033.624h-1051.484c-83.638 0-151.421-67.78-151.421-151.421v-701.979c0-83.638 67.78-151.421 151.421-151.421h1051.484c83.638 0 151.421 67.78 151.421 151.421v701.979c0 83.638-67.78 151.421-151.421 151.421zM1301.481 180.222c0-35.391-50.5-85.893-85.893-85.893h-1051.484c-35.365 0-85.893 50.5-85.893 85.893v701.979c0 35.391 50.529 85.893 85.893 85.893h1051.484c35.391 0 85.893-50.5 85.893-85.893v-701.979zM829.109 543.583c0.65 0.586 1.441 0.916 2.031 1.612l131.39 157.168c7.736 9.259 6.514 23.019-2.755 30.777-4.083 3.411-9.065 5.083-13.979 5.083-6.254 0-12.451-2.671-16.798-7.841l-131.39-157.168c-0.807-0.957-1.115-2.146-1.729-3.191l-121.714 96.92c-3.976 3.191-8.783 4.76-13.606 4.76-4.874 0-9.765-1.659-13.802-4.915l-121.825-99.195-108.979 122.759c-4.328 4.874-10.334 7.343-16.338 7.343-5.154 0-10.354-1.817-14.5-5.503-9.022-8.020-9.83-21.822-1.829-30.847l107.738-121.364-210.446-171.346c-9.344-7.625-10.747-21.387-3.145-30.753 7.601-9.289 21.387-10.767 30.738-3.124l352.562 287.026 344.004-273.921c9.478-7.519 23.219-5.939 30.689 3.494 7.519 9.433 5.964 23.177-3.474 30.689l-202.823 161.515zM336.636 717.278c7.712-9.259 21.471-10.53 30.753-2.773 9.259 7.712 10.53 21.494 2.773 30.753l-9.542 11.443c-4.299 5.177-10.53 7.863-16.798 7.863-4.915 0-9.872-1.678-13.957-5.083-9.259-7.712-10.53-21.494-2.773-30.753l9.542-11.443z" p-id="6670" fill="#c9e4d7"></path></svg>