<?xml version="1.0" standalone="no"?><!DOCTYPE svg PUBLIC "-//W3C//DTD SVG 1.1//EN" "http://www.w3.org/Graphics/SVG/1.1/DTD/svg11.dtd"><svg t="1566403306462" class="icon" viewBox="0 0 1024 1024" version="1.1" xmlns="http://www.w3.org/2000/svg" p-id="2225" xmlns:xlink="http://www.w3.org/1999/xlink" width="200" height="200"><defs><style type="text/css"></style></defs><path d="M553.0112 762.23488l0-98.54976c0-13.3632 10.84416-24.19712 24.19712-24.19712 47.68768 0 73.6256-48.896 77.21984-145.42848l-77.21984 0c-13.3632 0-24.19712-10.84416-24.19712-24.19712l0-208.0768c0-13.3632 10.84416-24.19712 24.19712-24.19712l205.88544 0c13.3632 0 24.19712 10.84416 24.19712 24.19712l0 208.0768c0 46.27456-4.66944 88.7296-13.83424 126.22848-9.4208 38.44096-23.87968 72.04864-42.97728 99.90144-19.63008 28.6208-44.20608 51.07712-73.0112 66.72384-29.02016 15.73888-62.75072 23.72608-100.27008 23.72608C563.84512 786.432 553.0112 775.58784 553.0112 762.23488zM240.90624 639.47776c-13.3632 0-24.19712 10.84416-24.19712 24.19712l0 98.54976c0 13.3632 10.83392 24.19712 24.19712 24.19712 37.49888 0 71.24992-7.9872 100.2496-23.72608 28.81536-15.64672 53.39136-38.0928 73.02144-66.72384 19.0976-27.8528 33.55648-61.46048 42.97728-99.92192 9.17504-37.49888 13.83424-79.95392 13.83424-126.208l0-208.0768c0-13.3632-10.84416-24.19712-24.19712-24.19712L240.90624 237.568c-13.3632 0-24.19712 10.84416-24.19712 24.19712l0 208.0768c0 13.3632 10.83392 24.19712 24.19712 24.19712l76.1344 0C313.48736 590.58176 287.91808 639.47776 240.90624 639.47776z" p-id="2226" fill="#ffffff"></path></svg>