<?xml version="1.0" standalone="no"?><!DOCTYPE svg PUBLIC "-//W3C//DTD SVG 1.1//EN" "http://www.w3.org/Graphics/SVG/1.1/DTD/svg11.dtd"><svg t="1566403244566" class="icon" viewBox="0 0 1024 1024" version="1.1" xmlns="http://www.w3.org/2000/svg" p-id="2062" xmlns:xlink="http://www.w3.org/1999/xlink" width="200" height="200"><defs><style type="text/css"></style></defs><path d="M470.9888 261.77536l0 98.54976c0 13.3632-10.83392 24.19712-24.19712 24.19712-47.68768 0-73.6256 48.90624-77.21984 145.43872l77.21984 0c13.3632 0 24.19712 10.84416 24.19712 24.19712l0 208.0768c0 13.3632-10.83392 24.19712-24.19712 24.19712L240.90624 786.432c-13.37344 0-24.19712-10.84416-24.19712-24.19712l0-208.0768c0-46.27456 4.6592-88.73984 13.84448-126.22848 9.4208-38.44096 23.87968-72.04864 42.96704-99.90144 19.64032-28.6208 44.20608-51.07712 73.02144-66.72384 29.00992-15.73888 62.74048-23.72608 100.25984-23.72608C460.15488 237.57824 470.9888 248.41216 470.9888 261.77536zM783.09376 384.52224c13.3632 0 24.19712-10.84416 24.19712-24.19712l0-98.54976c0-13.3632-10.83392-24.19712-24.19712-24.19712-37.50912 0-71.23968 7.9872-100.2496 23.72608-28.81536 15.64672-53.39136 38.10304-73.03168 66.72384-19.08736 27.8528-33.54624 61.46048-42.96704 99.91168-9.17504 37.49888-13.83424 79.96416-13.83424 126.21824l0 208.0768c0 13.3632 10.83392 24.19712 24.19712 24.19712l205.8752 0c13.3632 0 24.19712-10.84416 24.19712-24.19712l0-208.0768c0-13.3632-10.83392-24.19712-24.19712-24.19712L706.9696 529.96096C710.51264 433.42848 736.07168 384.52224 783.09376 384.52224z" p-id="2063" fill="#ffffff"></path></svg>