<?xml version="1.0" standalone="no"?><!DOCTYPE svg PUBLIC "-//W3C//DTD SVG 1.1//EN" "http://www.w3.org/Graphics/SVG/1.1/DTD/svg11.dtd"><svg t="1565767412683" class="icon" viewBox="0 0 1489 1024" version="1.1" xmlns="http://www.w3.org/2000/svg" p-id="7268" xmlns:xlink="http://www.w3.org/1999/xlink" width="290.8203125" height="200"><defs><style type="text/css"></style></defs><path d="M787.456 757.294545a151.924364 151.924364 0 0 1-2.513455-9.30909l-11.077818 10.426181c4.561455-0.186182 9.122909-0.558545 13.591273-1.117091zM425.797818 369.198545a329.634909 329.634909 0 0 1 323.211637-242.036363 333.730909 333.730909 0 0 1 302.917818 186.181818 400.290909 400.290909 0 0 1 102.4-13.405091q17.966545 0 35.467636 1.675636a471.784727 471.784727 0 0 0-899.444364 64.325819 366.778182 366.778182 0 0 1 135.447273 3.258181zM1141.853091 1024h12.474182-6.609455zM595.781818 459.217455l-2.792727-2.699637-4.747636-4.468363a354.304 354.304 0 0 0-162.443637-82.944 366.778182 366.778182 0 0 0-135.168-3.723637A336.896 336.896 0 0 0 0 692.410182a332.893091 332.893091 0 0 0 227.421091 311.016727 361.844364 361.844364 0 0 0 72.890182 17.408l131.165091-124.183273h-91.229091a208.058182 208.058182 0 0 1-209.082182-202.938181 204.8 204.8 0 0 1 155.834182-195.49091 223.418182 223.418182 0 0 1 135.912727 6.702546 215.691636 215.691636 0 0 1 68.514909 41.704727l2.978909 2.792727 1.675637 1.582546 104.727272 99.141818 98.210909-93.090909z m458.286546 437.527272z m153.6-529.594182a364.730182 364.730182 0 0 0-66.653091-6.144 360.727273 360.727273 0 0 0-69.259637 6.609455 353.745455 353.745455 0 0 0-170.635636 84.619636l-4.747636 4.468364-2.792728 2.699636-103.424 97.838546L607.883636 729.739636l-98.676363 93.090909-77.824 73.63491-131.165091 124.183272a360.075636 360.075636 0 0 0 47.290182 3.165091h800.488727a351.790545 351.790545 0 0 0 41.146182-3.072 329.169455 329.169455 0 0 0 18.618182-653.684363z m-62.370909 529.594182H627.898182l21.783273-20.573091 124.183272-117.573818 11.077818-10.426182 208.430546-197.259636 1.675636-1.582545 2.885818-2.792728a215.598545 215.598545 0 0 1 77.73091-44.962909 222.766545 222.766545 0 0 1 69.166545-10.984727 225.093818 225.093818 0 0 1 65.815273 9.867636 204.8 204.8 0 0 1 147.549091 193.163637 208.337455 208.337455 0 0 1-213.178182 203.031272z" p-id="7269" fill="#c9e4d7"></path></svg>