<?xml version="1.0" standalone="no"?><!DOCTYPE svg PUBLIC "-//W3C//DTD SVG 1.1//EN" "http://www.w3.org/Graphics/SVG/1.1/DTD/svg11.dtd"><svg t="1565748463753" class="icon" viewBox="0 0 1024 1024" version="1.1" xmlns="http://www.w3.org/2000/svg" p-id="9403" xmlns:xlink="http://www.w3.org/1999/xlink" width="200" height="200"><defs><style type="text/css"></style></defs><path d="M464.9984 96.6144c-40.3968 5.5296-99.1744 28.0576-127.0784 48.7424a66.0992 66.0992 0 0 1-9.8816 6.1952 240.2304 240.2304 0 0 0-21.1456 16.1792c-37.0688 31.1808-68.2496 72.6016-85.9136 113.8176-9.3696 22.1184-12.4416 31.1296-21.2992 64.1536-2.8672 11.264-6.9632 16.384-13.1584 16.384-10.6496 0-65.792 23.552-82.7904 35.2768-12.7488 9.0112-43.52 36.5056-49.0496 44.032-28.8256 39.424-34.2016 49.2544-43.4176 78.1312-7.9872 25.2416-11.264 46.7968-11.264 73.0112 0 65.4336 22.528 120.1664 68.7104 166.1952 28.4672 28.5696 61.9008 49.1008 96.3584 58.6752 40.5504 11.3152 28.672 11.1104 345.4976 11.1104 266.24 0 293.7344-0.3584 311.6032-3.4304 21.76-3.9936 54.1696-12.544 58.0096-15.4624 1.4336-1.0752 5.7344-3.2256 9.6768-4.7104 9.472-3.6352 31.1296-17.8176 47.36-30.7712 52.6848-42.1888 85.7088-112.128 85.9136-181.8624 0-20.1728-7.9872-66.2528-13.3632-76.4928a29.7472 29.7472 0 0 1-3.1232-8.6016c0-3.6864-15.7696-34.4064-20.1216-39.5264a168.7552 168.7552 0 0 1-9.4208-12.9024c-7.9872-12.7488-18.2272-23.552-38.144-40.192-19.8656-17.0496-32.8192-25.856-43.008-29.952a45.9264 45.9264 0 0 1-9.472-4.5056c-2.9184-2.048-39.7824-15.616-50.0224-18.2272a340.6336 340.6336 0 0 0-37.9904-3.2768c-34.4576-1.2288-59.4432 1.2288-76.8512 7.7824-6.144 2.2528-15.616 5.5296-20.8896 7.424-12.4928 4.096-37.9392 18.0224-50.0736 27.2896-25.856 19.8656-79.1552 67.6352-108.4928 97.3824-11.4688 11.7248-147.5584 142.848-192.4608 185.5488-11.264 10.7008-28.1088 27.2384-37.5296 36.7104l-17.0496 16.9984-34.0992-1.4848a584.96 584.96 0 0 1-52.2752-4.096c-53.2992-8.8064-97.1776-48.9984-111.7184-102.5024-4.3008-15.616-4.7104-55.0912-0.8192-70.7072 6.7584-26.6752 26.2144-57.3952 47.7696-75.4688 22.7328-19.0464 62.5152-33.1776 93.2352-33.1776 36.9152 0 77.9264 19.0464 114.2272 52.8896 6.9632 6.2976 17.2032 15.3088 22.528 19.8656 5.5296 4.4544 15.7696 13.5168 22.5792 19.8656 6.912 6.5536 13.7216 11.9296 15.36 11.9296 3.6864 0 11.7248-6.7584 40.8064-35.2768 13.7216-13.568 25.0368-25.856 25.0368-27.2896s-9.0112-10.24-19.9168-19.456c-11.0592-9.472-21.504-18.432-23.3984-20.5312-3.8912-4.5056-40.5504-34.2528-59.4432-48.384a254.464 254.464 0 0 0-64-33.6384c-9.984-3.8912-18.6368-7.7824-18.9952-9.216-1.0752-2.6624 11.8784-39.7824 18.0224-51.2512 12.6976-24.3712 28.8768-45.1072 52.2752-67.2768 21.3504-20.1216 56.0128-39.3728 83.6608-46.2848 4.5056-1.0752 14.1312-3.6864 21.504-5.5296 9.8304-2.6624 21.0944-3.6864 43.1104-3.6864 25.6 0 32.5632 0.8192 51.2512 5.5296 40.7552 10.6496 68.3008 24.4224 96.1024 48.5888 17.8688 15.616 36.352 37.3248 48.0256 57.1904 5.376 9.0624 10.496 16.8448 11.264 17.4592a63.488 63.488 0 0 0 14.7968-2.2528c7.3728-1.6384 27.648-3.6864 45.1584-4.3008 35.584-1.6384 36.6592-2.048 29.0304-16.4352-2.048-4.096-5.12-11.264-6.5536-15.7696a78.0288 78.0288 0 0 0-7.2192-15.36 85.3504 85.3504 0 0 1-5.6832-10.24c-4.5056-9.4208-23.1424-34.4064-40.6016-54.4768-21.1456-24.2176-58.8288-52.48-90.0096-67.6864a4836.864 4836.864 0 0 0-23.1936-11.4688c-3.6864-1.8432-10.24-4.1472-37.2736-12.544-34.304-10.9056-87.8592-14.4384-130.6624-8.6528z m349.7472 356.9152c37.7344 9.6256 58.6752 21.9136 80.7936 47.7696 22.9888 26.4192 31.5392 50.2272 32.6144 88.9856 0.8704 24.0128 0.4096 27.648-4.5056 42.8032-7.0144 21.6064-13.7728 35.1232-24.2176 47.872-19.9168 24.3712-48.7936 43.2128-76.0832 49.6128a408.32 408.32 0 0 1-42.1888 4.7104c-37.9392 2.4576-345.856 2.6112-347.3408 0.256-0.5632-1.0752 21.1968-23.4496 48.4352-49.664 27.2384-26.4704 55.552-53.9648 62.9248-61.2864 22.1184-21.76 107.008-102.912 119.0912-113.8176a193.024 193.024 0 0 0 12.9536-12.7488c2.6112-4.096 30.72-24.4224 42.8544-30.7712 5.9392-3.2768 17.8688-7.9872 26.2656-10.6496 8.3968-2.4576 16.384-4.9664 17.408-5.3248 5.888-2.048 39.9872-0.6144 50.9952 2.2528z m0 0" fill="#2c3e50" p-id="9404"></path></svg>